<?xml version="1.0" encoding="utf-8"?>
<!-- Generator: Adobe Illustrator 16.0.0, SVG Export Plug-In . SVG Version: 6.00 Build 0)  -->
<!DOCTYPE svg PUBLIC "-//W3C//DTD SVG 1.1//EN" "http://www.w3.org/Graphics/SVG/1.1/DTD/svg11.dtd">
<svg version="1.1" id="图层_1" xmlns="http://www.w3.org/2000/svg" xmlns:xlink="http://www.w3.org/1999/xlink" x="0px" y="0px"
	 width="1080px" height="370px" viewBox="0 0 1080 370" enable-background="new 0 0 1080 370" xml:space="preserve">
<rect y="1.426" fill="#F7F6F2" width="1080" height="368.574"/>
<g>
	<polygon fill="#5A9BD1" points="796.142,3.604 603.353,649.496 102.241,196.424 	"/>
	<polygon fill="#F7F6F2" points="957.391,57.48 637.54,591.838 495.921,617.309 401.89,591.021 69.811,50.173 571.306,46.094 
		682.868,58.523 	"/>
	<polygon fill="#F7F6F2" points="789.647,12.082 601.161,640.287 114.195,198.738 	"/>
	<polygon fill="#EBEBEB" points="794.919,75.305 488.161,663.617 132.049,103.797 	"/>
	<polygon fill="#F8F7F3" points="727.335,117.521 484.054,584.094 201.633,140.117 	"/>
</g>
<polygon fill="#E2F3FA" points="1079.42,193.598 1033.51,232.842 893.104,99.459 781.769,192.793 653.103,226.793 609.769,126.126 
	508.44,252.126 523.772,73.459 375.107,224.126 292.44,194.126 213.773,240.126 149.44,202.793 -0.576,331.598 -0.576,370.295 
	1079.42,370.295 "/>
<polygon fill="#9AC2E6" points="1080.088,274.93 1067.168,289.174 844.96,186.459 677.522,315.127 606.146,195.793 470.731,300.459 
	478.069,139.127 406.692,252.459 253.264,312.459 102.503,247.127 -0.576,325.93 -0.576,368.627 1080.088,368.627 "/>
<polygon fill="#599AD2" points="1079.42,327.597 1013.77,354.127 790.769,307.627 750.769,352.627 640.269,289.127 541.269,316.627 
	470.772,239.127 196.773,364.627 81.773,251.127 -0.576,347.597 -0.576,370 1079.42,370 "/>
<g>
	<polygon fill="#FFFFFF" points="982.307,53.553 1035.148,1.426 1079.42,25.705 	"/>
	<polygon fill="#EDEBEC" points="1079.42,87.114 1039.432,39.272 1079.42,27.132 	"/>
	<polygon fill="#EDEBEC" points="1079.42,92.113 982.307,53.553 1079.42,146.381 	"/>
</g>
<g>
	<polygon fill="#F3F3F3" points="53.664,46.31 -0.45,0 -0.45,78.05 	"/>
	<polygon fill="#EDEBEC" points="48.525,94.05 -0.45,80.651 -0.45,155.578 	"/>
	<polygon fill="#EDEBEC" points="118.705,114.993 -0.45,160.262 -0.45,233.106 	"/>
	<polygon fill="#FFFFFF" points="121.827,114.472 53.664,46.31 -3.573,79.61 	"/>
	<polygon fill="#F3F3F3" points="121.827,114.472 48.525,94.05 -6.174,162.604 	"/>
</g>
<g>
	<polygon fill="#9AC1E8" points="891.436,22.832 956.877,38.21 911.723,48.027 	"/>
	<polygon fill="#4683B9" points="904.523,66.678 911.723,48.027 891.436,22.832 	"/>
	<polygon fill="#599AD2" points="956.877,38.21 904.523,66.678 911.723,48.027 	"/>
</g>
<g>
	<polygon fill="#9BC3E7" points="1007.867,124.013 1007.701,139.513 962.701,145.18 	"/>
	<polygon fill="#599CD1" points="1007.723,149.013 1007.701,139.513 962.701,145.18 	"/>
</g>
<g>
	<polygon fill="#9AC2E6" points="227.845,38.269 292.346,17.174 260.704,47.599 	"/>
	<polygon fill="#5999D6" points="269.629,84.92 260.704,47.599 227.845,38.269 	"/>
	<polygon fill="#4783B9" points="292.346,17.174 269.629,84.92 260.704,47.599 	"/>
</g>
</svg>
