<?xml version="1.0" encoding="utf-8"?>
<!-- Generator: Adobe Illustrator 16.0.0, SVG Export Plug-In . SVG Version: 6.00 Build 0)  -->
<!DOCTYPE svg PUBLIC "-//W3C//DTD SVG 1.1//EN" "http://www.w3.org/Graphics/SVG/1.1/DTD/svg11.dtd">
<svg version="1.1" id="图层_1" xmlns="http://www.w3.org/2000/svg" xmlns:xlink="http://www.w3.org/1999/xlink" x="0px" y="0px"
	 width="1080px" height="1050px" viewBox="0 0 1080 1050" enable-background="new 0 0 1080 1050" xml:space="preserve">
<rect fill="#F7F6F2" width="1080" height="1050"/>
<g>
	<polygon fill="#E2F3FA" points="1079.808,1050 1079.808,873.261 1033.896,912.505 893.49,779.123 782.156,872.456 653.49,906.456 
		610.156,805.789 508.827,931.789 524.16,753.123 375.494,903.789 292.827,873.789 214.16,919.789 149.827,882.457 -0.188,1011.262 
		-0.188,1050 	"/>
	<polygon fill="#9AC2E6" points="1080.475,1050 1080.475,954.594 1067.556,968.838 845.347,866.123 677.909,994.791 
		606.532,875.457 471.118,980.123 478.456,818.79 407.079,932.123 253.651,992.123 102.891,926.79 -0.188,1005.594 -0.188,1050 	"/>
	<g>
		<polygon fill="#5A9BD1" points="802.343,136.889 638.261,790.664 117.633,360.16 		"/>
		<polygon fill="#F7F6F2" points="965.813,183.593 669.869,731.552 529.512,763.251 434.412,741.141 78.777,215.482 
			579.604,189.265 691.605,196.756 		"/>
		<polygon fill="#F7F6F2" points="796.229,145.645 635.664,781.56 129.677,361.943 		"/>
		<polygon fill="#EBEBEB" points="804.289,208.573 523.806,809.857 143.322,266.307 		"/>
		<polygon fill="#F8F7F3" points="738.633,253.733 516.19,730.592 214.441,299.52 		"/>
	</g>
	<g>
		<polygon fill="#FFFFFF" points="875.817,108.535 986.813,-0.959 1079.808,50.038 		"/>
		<polygon fill="#EDEBEC" points="1079.808,179.032 995.813,78.537 1079.808,53.038 		"/>
		<polygon fill="#EDEBEC" points="1079.808,189.531 875.817,108.535 1079.808,303.525 		"/>
	</g>
	<g>
		<polygon fill="#F3F3F3" points="69.13,731.748 -0.203,672.414 -0.203,772.414 		"/>
		<polygon fill="#EDEBEC" points="62.546,792.915 -0.203,775.748 -0.203,871.748 		"/>
		<polygon fill="#EDEBEC" points="152.464,819.748 -0.203,877.748 -0.203,971.082 		"/>
		<polygon fill="#FFFFFF" points="156.464,819.081 69.13,731.748 -4.203,774.414 		"/>
		<polygon fill="#F3F3F3" points="156.464,819.081 62.546,792.915 -7.537,880.748 		"/>
	</g>
	<g>
		<polygon fill="#9AC2E6" points="246.33,741.288 325.83,715.288 286.83,752.788 		"/>
		<polygon fill="#5999D6" points="297.83,798.788 286.83,752.788 246.33,741.288 		"/>
		<polygon fill="#4783B9" points="325.83,715.288 297.83,798.788 286.83,752.788 		"/>
	</g>
	<g>
		<path fill="#4783B9" d="M881.84,652.508c0,33.136-26.861,59.997-59.997,59.997H367.37c-33.136,0-59.997-26.861-59.997-59.997l0,0
			c0-33.136,26.861-59.997,59.997-59.997h454.473C854.979,592.511,881.84,619.372,881.84,652.508L881.84,652.508z"/>
		<g>
			<g enable-background="new    ">
				<path fill="#FFFFFF" d="M369.617,635.581v3.931h-9.673v-12.1h23.516l1.265-4.956h14.185l1.333,4.956h23.14v12.1h-9.57v-3.931
					H369.617z M402.02,686.919v-2.666h8.511l0.034-22.012h-36.572v24.678h-11.997v-34.043h7.622v4.307h44.194v-4.307h7.485v23.994
					c0,2.848-0.052,4.984-0.153,6.408c-0.104,1.424-0.855,2.387-2.256,2.889c-1.402,0.501-3.288,0.752-5.657,0.752H402.02z
					 M411.624,654.961h-39.819v-17.158h39.819V654.961z M408.377,664.326l-0.034,17.739h-32.129v-17.739H408.377z M382.776,647.817
					h17.876v-2.871h-17.876V647.817z M387.596,674.922h9.468v-2.871h-9.468V674.922z"/>
				<path fill="#FFFFFF" d="M449.017,663.643c-0.639,2.438-1.202,4.483-1.691,6.136c-0.491,1.652-1.288,3.971-2.393,6.955
					c-1.106,2.984-2.046,5.104-2.82,6.357l-1.333,2.188l-11.689-5.298c0.979-1.596,1.617-2.689,1.914-3.281
					c0.296-0.593,0.843-1.761,1.641-3.503c0.797-1.744,1.458-3.355,1.982-4.837l1.128-3.452l1.436-4.409L449.017,663.643z
					 M487.298,658.926l-3.896-3.589l-6.118,3.555l-41.973,0.034v-34.624h51.987V658.926z M447.991,637.905h8.032v-3.452h-8.032
					V637.905z M447.991,649.663h8.032v-3.213h-8.032V649.663z M462.928,679.98l11.963-8.032l3.418,6.631
					c0.455,0.934,0.712,1.766,0.769,2.495c0.057,0.729-0.085,1.436-0.427,2.119c-0.365,0.706-0.963,1.344-1.794,1.914
					c-0.833,0.569-1.978,0.854-3.436,0.854h-18.013c-3.145,0-5.075-0.684-5.794-2.051c-0.717-1.367-1.076-2.644-1.076-3.828v-6.528
					l3.008-9.912h2.598l-1.265,1.128L462.928,679.98z M463.611,659.883c2.848,3.51,4.728,5.947,5.64,7.314l2.529,3.794l-8.032,5.674
					c-0.639-0.979-1.117-1.72-1.436-2.222l-3.657-5.435l-2.734-4.067L463.611,659.883z M475.027,634.453h-7.451v3.452h7.451V634.453
					z M475.027,646.45h-7.451v3.213h7.451V646.45z M482.889,658.311c0.797,0.935,1.532,1.807,2.204,2.614
					c0.672,0.81,2,2.666,3.982,5.572c1.982,2.904,3.121,4.608,3.418,5.109l2.529,4.272l-10.391,7.007
					c-1.823-2.758-3.271-4.979-4.341-6.665c-1.071-1.686-1.812-2.848-2.222-3.486l-2.939-4.238l-2.427-3.486L482.889,658.311z"/>
			</g>
			<text transform="matrix(1 0 0 1 496.8682 673.2461)" fill="#FFFFFF" font-family="'Exotic350BT-Bold'" font-size="90">    </text>
			
				<text transform="matrix(1 0 0 1 608.1387 673.2461)" fill="#FFFFFF" font-family="'Exotic350BT-Bold'" font-size="90" letter-spacing="-9"> </text>
			<g enable-background="new    ">
				<path fill="#FFFFFF" d="M642.814,681.04l-4.922,6.221l-9.844-8.784c2.803-3.623,4.409-5.753,4.819-6.392l6.392-9.673
					c-1.641-4.307-2.911-7.952-3.811-10.938c-0.9-2.984-1.692-6.551-2.376-10.698l-0.786-4.614v-10.356h24.336l3.247,4.136
					c-1.596,4.216-2.529,6.597-2.803,7.144l-5.947,12.236l5.503,3.35c-0.889,3.054-1.823,6.323-2.803,9.81
					c1.504,2.051,2.358,3.168,2.563,3.35l7.314,7.485l-8.511,10.117c-3.076-2.78-4.99-4.66-5.742-5.64l-2.358-2.871
					C644.74,678.385,643.315,680.425,642.814,681.04z M643.737,638.726c0.068,0.889,0.177,1.874,0.325,2.956
					c0.147,1.083,0.483,2.251,1.008,3.504l1.47,3.896c0.319-1.048,0.587-2.005,0.804-2.871c0.216-0.865,0.506-2.563,0.871-5.093
					l0.342-2.393H643.737z M664.963,653.662l-11.177-5.674c1.321-2.393,2.757-5.064,4.307-8.016c1.549-2.95,3.258-6.83,5.127-11.638
					l2.666-6.802l13.159,4.512l-2.563,5.913h13.398l4.956,5.229l-7.622,17.637l-11.04-4.648l2.871-6.836h-2.803l-3.315,7.827
					l7.383,3.418c0.797,2.438,1.919,5.418,3.366,8.938c1.447,3.521,3.743,6.592,6.888,9.212l4.99,4.443l-9.365,10.869
					c-1.664-1.367-3.271-2.751-4.819-4.153c-1.55-1.4-3.749-3.834-6.597-7.297l3.076-4.854l-2.119-0.957
					c-1.276,2.119-2.672,4.307-4.187,6.563c-1.517,2.256-3.401,4.5-5.657,6.733l-4.272,4.341l-4.102-3.828l9.707-11.621l-5.64-5.708
					c0.774-1.412,1.709-3.196,2.803-5.349c1.094-2.154,2.017-4.791,2.769-7.913l0.444-1.812l-1.367-0.547L664.963,653.662z"/>
				<path fill="#FFFFFF" d="M698.288,677.075c3.167-2.096,6.209-4.033,9.126-5.811l-0.034-12.476h-7.144v-11.997h18.628l0.034,8.408
					c0,0.615,0,1.391,0,2.324l-0.034,13.945c0.523,0.524,1.15,1.015,1.88,1.47c0.729,0.456,2.563,0.741,5.503,0.854h4.614h4.375
					l0.068,5.742h15.688v-5.742h13.159l-0.068,12.441h-36.333c-3.373,0-5.879-0.223-7.52-0.666c-1.641-0.445-3.128-1.129-4.46-2.051
					c-1.334-0.924-2.251-1.374-2.752-1.351c-0.434,0.045-1.025,0.318-1.777,0.82l-3.11,2.188l-3.589,2.427L698.288,677.075z
					 M700.578,629.497l8.442-8.203l12.92,13.159l-8.203,8.545L700.578,629.497z M719.616,659.814
					c0.569-0.455,1.02-0.905,1.351-1.351c0.329-0.443,0.495-1.179,0.495-2.204v-17.773l3.247-4.17l-3.247-3.691v-3.213
					c6.289-1.39,12.076-3.088,17.363-5.093l5.298,13.022l-9.229,3.521v16.27l2.837-0.854l3.281,11.792l-17.432,4.956
					L719.616,659.814z M737.458,640.093l9.741-3.691l-4.956-11.997h21.021l-0.034,38.999c-0.023,0.661-0.132,1.447-0.325,2.358
					c-0.193,0.912-0.627,1.732-1.299,2.461c-0.672,0.729-1.486,1.271-2.443,1.624s-1.903,0.519-2.837,0.495l-8.887-0.068v-11.484
					h1.88c0.638,0,1.122-0.176,1.453-0.53c0.329-0.353,0.495-0.984,0.495-1.896v-18.047h-2.427l0.034,16.338
					c0,0.775-0.114,1.311-0.342,1.606c-0.229,0.297-0.661,0.444-1.299,0.444h-1.982v15.483h3.555l0.034,5.435h-11.45l0.068-7.759
					l6.46-2.427l-4.272-15.586l-2.256,0.479L737.458,640.093z"/>
				<path fill="#FFFFFF" d="M788.625,641.938v7.622l-3.931,8.203l3.931,2.051v3.691H776.97v-12.783l-8.169-5.435
					c3.258-4.261,6.089-8.208,8.494-11.843c2.403-3.635,4.87-7.65,7.399-12.049l8.169,4.272c-2.621,4.922-4.307,7.998-5.059,9.229
					l-3.247,5.332L788.625,641.938z M788.283,668.257c-1.276,4.125-2.438,7.634-3.486,10.527c-1.049,2.894-1.846,4.796-2.393,5.708
					l-1.606,2.769l-11.792-4.751c1.937-3.464,3.389-6.415,4.357-8.853s2.022-5.469,3.162-9.092L788.283,668.257z M806.877,642.417
					l-3.862,9.331h-5.298l0.034,8.989l-10.151-4.033c1.8-3.235,3.907-7.462,6.323-12.681l5.4,2.085l3.35-5.195L806.877,642.417z
					 M807.971,624.404l-1.265,2.188h22.319l4.956,5.093l-6.597,13.125l-11.519-4.375l1.743-4.375h-2.324l-2.871,7.28l5.742,12.202
					v3.008c0,0.798-0.04,1.476-0.119,2.033c-0.081,0.56-0.582,1.282-1.504,2.171c-0.924,0.889-2.479,1.333-4.666,1.333h-11.826
					v-10.254h4.272c0.684,0,1.219-0.193,1.606-0.581c0.387-0.387,0.934-1.777,1.641-4.17l1.367-4.717l0.82-3.589l-3.589-0.684
					v-2.051h-4.512l-3.247,5.4l-10.698-4.136c2.939-4.944,4.546-7.679,4.819-8.203l4.751-9.229L807.971,624.404z M814.123,673.794
					l3.999,7.109c0.569,1.048,0.825,1.834,0.769,2.358c-0.057,0.523-0.438,1.219-1.145,2.085c-0.707,0.865-2.519,1.299-5.435,1.299
					h-17.979c-1.367,0-2.695-0.319-3.981-0.957c-1.288-0.639-1.932-1.777-1.932-3.418v-4.375l2.769-10.322l-2.769-0.684v-1.299h7.93
					l-4.956,4.956c4.307,3.601,6.881,5.867,7.725,6.802l5.776,6.323L814.123,673.794z M794.504,670.205l4.717-3.794h6.494
					c2.688,2.279,4.842,4.318,6.46,6.118l-7.144,7.588c-1.117-1.23-2.233-2.409-3.35-3.538
					C800.564,675.452,798.172,673.327,794.504,670.205z M814.602,669.419l10.459-5.537c2.393,3.737,4.158,6.586,5.298,8.545
					c1.139,1.96,2.449,4.557,3.931,7.793l-10.698,5.537C820.241,679.581,817.244,674.136,814.602,669.419z M815.422,645.288
					l3.76-1.367l9.16,3.896l1.265-2.29c2.301,3.965,3.805,6.768,4.512,8.408l0.957,2.188l-10.664,5.571
					C821.038,655.52,818.042,650.051,815.422,645.288z"/>
			</g>
			<g enable-background="new    ">
				<path fill="#FFFFFF" d="M519.889,682.209l-22.062-54.854h15.615l10.891,28.948l11.251-28.948h7.047L519.889,682.209z"/>
				<path fill="#FFFFFF" d="M563.051,680.888h-15.015v-53.532h15.015V680.888z"/>
				<path fill="#FFFFFF" d="M576.184,680.888v-53.532h21.381c6.859,0,12.185,1.508,15.976,4.524
					c3.79,3.017,5.686,7.247,5.686,12.692c0,4.458-1.516,8.002-4.544,10.631c-3.03,2.629-7.121,3.943-12.272,3.943h-11.651v21.741
					H576.184z M590.758,634.002V652.5h3.363c3.576,0,6.219-0.681,7.928-2.042c1.708-1.361,2.563-3.47,2.563-6.326
					c0-3.017-0.995-5.458-2.982-7.327c-1.989-1.868-4.599-2.803-7.828-2.803H590.758z"/>
			</g>
		</g>
	</g>
	<g enable-background="new    ">
		<path fill="#599AD2" d="M242.057,206.759c4.889-1.083,11.128-2.445,18.743-4.075c0-0.535,0-1.63,0-3.259
			c1.082-16.298,1.63-27.426,1.63-33.411l30.15-3.26c-0.547,3.807-0.814,9.779-0.814,17.928c-0.548,7.614-0.815,13.586-0.815,17.928
			c2.165,0,4.343,0,6.52,0v-8.149h13.038v13.853c-2.177,0-5.437,0.28-9.778,0.815c-4.354,0-7.614,0.28-9.779,0.815v3.259
			c3.26,3.26,7.869,8.429,13.854,15.483c2.165,2.725,3.795,4.622,4.89,5.704c8.148-11.943,16.832-22.817,26.076-32.596
			l25.262,14.668c-6.519,7.614-16.298,20.105-29.336,37.485l12.224-8.149c5.972,4.89,12.223,10.326,18.742,16.298
			c9.778-9.778,16.833-16.298,21.188-19.557l10.594,6.519c-7.067-10.861-16.298-22.537-27.707-35.041l26.077-16.298
			c8.148,9.244,17.647,21.467,28.521,36.67l-22.816,17.113l11.408,7.334c-2.725,2.725-7.066,6.519-13.038,11.408
			c-5.437,5.437-9.512,9.511-12.224,12.224c13.573,13.038,26.077,26.077,37.485,39.115l-22.002,22.817
			c-7.067-9.779-19.29-22.817-36.671-39.115c-18.475,19.022-30.15,32.315-35.04,39.93l-22.002-23.632
			c5.972-7.054,17.647-19.825,35.04-38.3c-2.725-2.712-7.066-6.52-13.038-11.409c-4.89-3.794-8.429-6.787-10.594-8.964l8.149-5.704
			l-13.038-12.224l-13.039,23.632c-3.259-5.972-6.519-11.676-9.778-17.113c1.082,42.374,2.165,71.71,3.26,88.008l-30.151,2.444
			c-0.547-11.956-1.362-34.226-2.444-66.821c-0.548,1.095-1.362,2.992-2.444,5.704c-2.178,5.437-3.808,9.244-4.89,11.409
			l-13.854-29.336c5.972-15.75,13.038-32.048,21.188-48.894c-2.178,0.548-5.437,1.363-9.779,2.445
			c-3.807,0.547-6.799,1.095-8.963,1.63V206.759z M314.583,193.72c9.778-2.165,20.092-3.527,30.966-4.074
			c-2.726-4.89-6.252-10.594-10.594-17.113l30.966-11.409c4.342,5.984,9.498,14.401,15.482,25.262c2.712,0,6.52-0.267,11.409-0.815
			c3.794,0,6.519,0,8.148,0v-8.964h17.113v14.668c-38.033,0.547-72.525,3.54-103.491,8.964V193.72z"/>
	</g>
	<g enable-background="new    ">
		<path fill="#599AD2" d="M328.459,345.942l-25.708-27.613l1.434-1.694c5.847-6.906,17.091-19.214,33.434-36.597
			c-2.68-2.505-6.404-5.711-11.107-9.562c-4.986-3.868-8.529-6.87-10.783-9.136l-2.095-2.107l8.061-5.642l-8.446-7.918
			l-13.687,24.806l-2.182-3.999c-1.603-2.936-3.216-5.827-4.83-8.653c0.996,37.071,2.004,63.348,3,78.183l0.165,2.46l-35.19,2.853
			l-0.119-2.587c-0.48-10.507-1.173-29.121-2.063-55.415c-1.246,2.993-2.23,5.207-2.982,6.71l-2.3,4.602l-16.504-34.949l0.377-0.993
			c5.389-14.213,11.762-29.089,18.972-44.29c-1.373,0.343-2.914,0.727-4.622,1.153l-0.249,0.049
			c-3.674,0.528-6.607,1.061-8.72,1.583l-3.1,0.766v-12.534l1.959-0.434c5.111-1.132,10.749-2.359,16.783-3.655l0.005-1.404
			c1.093-16.464,1.625-27.338,1.625-33.245v-2.244l35.583-3.847l-0.458,3.187c-0.523,3.645-0.789,9.557-0.789,17.572l-0.006,0.179
			c-0.44,6.113-0.702,11.227-0.783,15.249h1.493v-8.149h18.038v3.547l1.035-0.229c8.668-1.919,17.845-3.223,27.333-3.887
			c-2.372-4.034-5.221-8.549-8.5-13.474l-1.756-2.636l35.715-13.159l1.111,1.532c4.195,5.782,9.211,13.921,14.92,24.206
			c2.505-0.076,5.748-0.336,9.67-0.775l0.278-0.016h5.648v-8.964h22.113v19.633l-2.464,0.035c-7.256,0.104-14.398,0.3-21.425,0.586
			c7.694,8.945,16.658,20.56,26.681,34.575l1.421,1.988l-21.894,16.421l10.992,7.066l-2.193,2.193
			c-2.768,2.768-7.062,6.529-13.126,11.496l-10.335,10.335c12.917,12.499,24.953,25.106,35.798,37.501l1.512,1.729l-25.671,26.623
			l-1.751-2.423c-6.699-9.269-18.321-21.734-34.563-37.071c-17.311,17.902-28.415,30.604-33.018,37.772L328.459,345.942z
			 M309.444,318.181l18.349,19.708c5.719-7.995,16.744-20.373,33.549-37.677l1.711-1.762l1.792,1.68
			c16.044,15.044,27.869,27.501,35.206,37.083l18.36-19.04c-10.871-12.317-22.912-24.834-35.82-37.233l-1.839-1.767l14.211-14.194
			c4.445-3.639,7.996-6.684,10.6-9.087l-6.452-4.147l-15.439-9.501c-4.293,3.434-10.869,9.574-19.584,18.289l-1.692,1.692
			l-1.764-1.616c-5.947-5.447-11.729-10.497-17.21-15.033l-21.74,14.493c2.018,1.788,4.677,3.963,7.946,6.5
			c6.01,4.919,10.457,8.813,13.269,11.612l1.723,1.715l-1.667,1.771C327.039,298.571,315.783,310.836,309.444,318.181z
			 M262.632,261.876l0.327,9.843c1.001,30.165,1.783,51.733,2.328,64.203l25.116-2.036c-1.034-16.63-2.078-45.417-3.105-85.651
			l-0.243-9.498l4.886,8.148c2.533,4.225,5.093,8.657,7.635,13.222l12.402-22.479l15.261,14.308l2.117-2.821
			c11.76-15.676,20.995-27.537,27.501-35.321l-20.962-12.171c-8.572,9.227-16.8,19.594-24.476,30.844l-1.69,2.478l-2.133-2.109
			c-1.193-1.18-2.858-3.119-5.089-5.927c-6.04-7.117-10.525-12.132-13.664-15.271l-0.732-0.732v-6.252l1.901-0.47
			c2.358-0.583,5.797-0.881,10.225-0.888c3.016-0.369,5.474-0.611,7.432-0.729v-8.939h-8.038v8.149h-11.52v-2.5
			c0-4.418,0.274-10.48,0.815-18.018c0.001-6.325,0.161-11.282,0.484-15.017l-24.841,2.686c-0.108,6.33-0.637,16.6-1.609,31.247
			v5.198l-1.977,0.423c-5.999,1.284-11.628,2.505-16.766,3.638v2.229c1.724-0.332,3.723-0.663,5.982-0.989
			c4.279-1.066,7.495-1.871,9.651-2.413l5.192-1.306l-2.332,4.819c-7.925,16.383-14.895,32.426-20.723,47.699l11.088,23.479
			c0.758-1.783,1.632-3.911,2.62-6.376c1.111-2.784,1.938-4.712,2.529-5.893L262.632,261.876z M343.731,239.359l1.432,1.172
			c5.433,4.449,11.171,9.414,17.082,14.779c9.087-9.029,15.564-14.96,19.766-18.105l1.361-1.019l1.854,1.141
			c-5.833-7.92-12.755-16.276-20.676-24.957l-2.021-2.215l23.41-14.631c-15.292,0.833-29.984,2.108-44.009,3.82l22.615,13.131
			l-1.953,2.281c-4.9,5.724-11.716,14.303-20.329,25.583L343.731,239.359z M370.254,211.222
			c10.533,11.72,19.253,22.858,25.944,33.141l0.948,1.457l20.389-15.292c-9.607-13.348-18.187-24.395-25.544-32.89L370.254,211.222z
			 M293.11,208.843c3.182,3.255,7.533,8.142,13.26,14.893c1.034,1.3,1.938,2.403,2.713,3.312
			c6.538-9.366,13.456-18.109,20.632-26.078c-5.113,0.739-10.126,1.538-15.041,2.399l-2.006,0.352v3.76h-2.5
			c-2.023,0-5.122,0.26-9.473,0.796l-0.306,0.019c-2.966,0-5.403,0.131-7.279,0.39V208.843z M316.743,196.407v1.533
			c29.569-4.996,62.674-7.839,98.491-8.458v-9.708h-12.113v8.964h-10.509c-4.854,0.541-8.738,0.815-11.548,0.815h-1.477
			l-0.712-1.293c-5.413-9.823-10.19-17.704-14.221-23.462l-26.214,9.658c3.559,5.441,6.565,10.355,8.953,14.64l1.958,3.512
			l-4.016,0.202C335.406,193.31,325.798,194.519,316.743,196.407z"/>
	</g>
	<g enable-background="new    ">
		<path fill="#599AD2" d="M479.474,170.989c0,0.547,0,1.91,0,4.075c-0.547,2.725-0.814,4.622-0.814,5.704
			c27.706-9.231,57.577-13.306,89.637-12.224c29.871,0,45.354,10.594,46.449,31.781c2.164,39.115,1.082,79.045-3.26,119.79
			c2.164,0,4.074,0,5.705,0v4.889c-77.695-0.547-133.643,2.445-167.868,8.964c-4.355-47.798-5.438-101.046-3.26-159.718
			L479.474,170.989z M565.037,226.401h14.668v13.039c-6.518,0-13.318,0-20.371,0c-1.631,11.408-2.725,24.447-3.26,39.115
			c-0.547,4.889,1.082,7.066,4.889,6.519c1.082,0,2.166,0,3.26,0c0-1.083,0-2.979,0-5.704c-0.547-8.684-0.547-14.121,0-16.298h5.705
			c1.629,14.668,4.889,29.336,9.777,44.004c4.342-47.799,5.426-87.461,3.26-118.975c-1.094-8.149-7.066-12.758-17.928-13.853
			c-28.801-1.083-57.857,2.992-87.193,12.223c-2.177,41.292-2.177,78.229,0,110.825c1.083-2.712,2.445-7.334,4.076-13.853
			c5.424-18.462,9.498-31.5,12.223-39.115c-3.807,0-7.334,0.547-10.594,1.63v-6.519c28.24-3.794,55.412-5.705,81.488-5.705V226.401z
			 M480.289,323.374c21.723-2.165,54.318-3.26,97.787-3.26c0.535-1.082,0.814-2.712,0.814-4.89c0.535-2.164,0.814-3.527,0.814-4.074
			c-8.148,1.095-17.66,1.63-28.52,1.63c-16.299,0-24.447-7.869-24.447-23.632c-0.547-12.491,0.535-28.789,3.26-48.894
			c-1.631,0.548-2.992,0.815-4.074,0.815c-9.779,32.061-16.299,57.323-19.559,75.785l-28.521-15.483
			C478.927,309.521,479.742,316.854,480.289,323.374z M487.623,203.584c24.982-3.794,48.078-5.972,69.266-6.519v-8.149h17.113
			v14.668c-27.172-1.082-55.961,1.095-86.379,6.519V203.584z"/>
	</g>
	<g enable-background="new    ">
		<path fill="#599AD2" d="M447.08,338.335l-0.25-2.745c-4.342-47.652-5.441-101.497-3.269-160.038l0.081-2.183l38.328-3.74
			l-0.049,7.323c-0.122,0.605-0.224,1.146-0.311,1.628c26.838-8.431,56.004-12.174,86.767-11.138c0.002,0,0.004,0,0.006,0
			c31.219,0,47.685,11.49,48.856,34.15c2.113,38.2,1.11,77.69-2.981,117.418h5.43v9.906l-2.518-0.018
			c-5.997-0.042-11.866-0.063-17.604-0.063c-68.089,0-118.482,3.022-149.778,8.983L447.08,338.335z M448.479,177.921
			c-2.017,56.367-0.979,108.319,3.086,154.485c27.133-4.859,67.415-7.671,120.028-8.387c-39.923,0.105-70.536,1.193-91.059,3.239
			l-2.527,0.251l-0.212-2.53c-0.394-4.688-0.933-9.849-1.607-15.405l-0.107,0.269l-0.166-2.479c-0.176-1.399-0.36-2.822-0.552-4.267
			l-0.647-4.871l0.611,0.332c-2.153-32.469-2.147-69.754,0.018-110.822l0.091-1.732l1.655-0.521
			c29.473-9.274,59.092-13.429,88.037-12.336l0.157,0.011c12.111,1.221,18.893,6.606,20.154,16.008l0.017,0.161
			c2.166,31.517,1.068,71.679-3.264,119.372l-0.092,1.003l0.102-0.014v2.858c0,0.6-0.128,1.533-0.724,4.002l-0.122,1.349
			c-0.028,0.541-0.074,1.051-0.14,1.531l-0.106,1.176l-0.063-0.187c-0.175,0.835-0.419,1.565-0.733,2.201l-0.647,1.308
			c9.318-0.087,18.994-0.112,29.053-0.073l0.277-2.608c4.305-40.393,5.398-80.56,3.25-119.386
			c-1.024-19.799-15.401-29.419-43.953-29.419c-3.404-0.113-6.747-0.17-10.02-0.17c-27.879,0-54.4,4.127-78.827,12.266l-3.291,1.097
			v-3.468c0-1.239,0.267-3.187,0.814-5.951v-1.072L448.479,177.921z M480.944,307.298c0.656,5.267,1.195,10.202,1.611,14.743
			c6.614-0.611,14.18-1.13,22.679-1.557L480.944,307.298z M526.52,249.114c-8.722,29.055-14.67,52.438-17.696,69.572l-0.29,1.639
			c18.482-0.854,41.117-1.294,67.689-1.313c0.095-0.584,0.163-1.362,0.163-2.39v-0.305l0.073-0.295
			c0.05-0.204,0.098-0.396,0.141-0.577c-7.405,0.819-15.936,1.233-25.419,1.233c-17.61,0-26.927-9.018-26.948-26.077
			C523.76,279.668,524.528,265.74,526.52,249.114z M479.649,300.905l24.875,13.503c3.444-18.171,9.829-42.592,19.004-72.672
			l0.54-1.771h1.851c0.566,0,1.594-0.119,3.278-0.685l1.759-0.591c-14.659,0.89-29.67,2.338-44.912,4.336v1.053
			c2.572-0.567,5.281-0.854,8.094-0.854h3.55l-1.196,3.342c-2.694,7.528-6.786,20.624-12.164,38.929
			c-1.641,6.558-3.042,11.309-4.167,14.124L479.649,300.905z M532.934,238.573l-0.462,3.414c-2.688,19.838-3.779,36.139-3.24,48.448
			l0.002,0.109c0,14.417,6.974,21.132,21.948,21.132c10.006,0,18.906-0.467,26.489-1.391l-0.342-1.023
			c-4.675-14.029-7.912-28.246-9.631-42.295h-1.3c-0.144,2.116-0.159,6.109,0.315,13.641l0.005,0.157v8.204h-5.592
			c-0.432,0.055-0.852,0.083-1.249,0.083c-2.45,0-3.899-1.046-4.685-1.923c-1.446-1.618-1.976-4.026-1.618-7.36
			c0.535-14.584,1.639-27.802,3.28-39.287l0.307-2.146h20.039v-8.039h-9.668v7.334h-2.5
			C554.566,237.632,543.85,237.947,532.934,238.573z M562.269,261.968h9.893l0.247,2.224c1.144,10.293,3.127,20.695,5.919,31.055
			c1.498-18.573,2.472-35.898,2.921-51.911h-19.741c-1.456,10.829-2.444,23.164-2.938,36.706l-0.014,0.187
			c-0.299,2.672,0.252,3.44,0.366,3.567c0.22,0.246,0.833,0.321,1.683,0.199l0.355-0.025h0.76v-3.125
			c-0.751-11.964-0.316-15.424,0.075-16.985L562.269,261.968z M480.247,189.737c-1.765,34.358-2.004,66.015-0.718,94.358
			c4.649-15.825,8.35-27.798,11.029-35.687c-2.185,0.228-4.269,0.669-6.226,1.319l-3.288,1.092v-12.17l2.167-0.291
			c27.378-3.679,54.05-5.602,79.322-5.721v-7.34h18.999c0.035-12.853-0.318-24.718-1.06-35.545
			c-0.951-6.833-6.06-10.632-15.613-11.613C537.047,177.102,508.601,181.004,480.247,189.737z M485.12,214.485v-11.653l2.125-0.323
			c24.044-3.652,46.618-5.829,67.141-6.477v-8.22h22.113v19.77l-2.6-0.104c-4.457-0.178-9.022-0.268-13.569-0.268
			c-22.837,0-47.153,2.271-72.271,6.75L485.12,214.485z M490.12,207.133v1.391c24.367-4.189,47.971-6.313,70.209-6.313
			c3.733,0,7.479,0.06,11.169,0.178v-9.577h-12.113v8.085l-2.436,0.063C536.588,201.487,514.115,203.563,490.12,207.133z"/>
	</g>
	
		<text transform="matrix(1 0 0 1 226.2344 548.623)" fill="#599AD2" font-family="'FZTCGHJW--GB1-0'" font-size="208.6123" letter-spacing="19"> </text>
	
		<text transform="matrix(1 0 0 1 226.2344 548.623)" fill="none" stroke="#599AD2" stroke-width="5" stroke-miterlimit="10" font-family="'FZTCGHJW--GB1-0'" font-size="208.6123" letter-spacing="19"> </text>
	
		<text transform="matrix(1 0 0 1 306.5835 548.623)" fill="#599AD2" font-family="'FZTCGHJW--GB1-0'" font-size="208.6123" letter-spacing="-28"> </text>
	
		<text transform="matrix(1 0 0 1 306.5835 548.623)" fill="none" stroke="#599AD2" stroke-width="5" stroke-miterlimit="10" font-family="'FZTCGHJW--GB1-0'" font-size="208.6123" letter-spacing="-28"> </text>
	<g enable-background="new    ">
		<path fill="#599AD2" d="M348.91,454.881c1.63-1.082,4.075-2.712,7.334-4.889c6.519-3.794,11.408-6.787,14.668-8.964
			c0-3.794,0-9.499,0-17.113c-0.548-7.602-0.815-13.306-0.815-17.113c-2.177,0.547-5.704,1.095-10.593,1.63
			c-2.725,1.095-4.89,1.63-6.52,1.63v-7.334c5.424-1.63,10.861-2.712,16.298-3.26c-0.548-11.943-1.63-24.447-3.26-37.485
			l31.781-4.075c0,2.177,0.267,5.704,0.814,10.594c1.082,10.874,1.63,19.29,1.63,25.262c1.082,0,2.165-0.268,3.26-0.815
			c1.63,0,2.712,0,3.26,0v-7.334l14.668-0.815v15.483c-6.52,0-13.318,0.28-20.373,0.815c0.535,7.066,0.815,14.4,0.815,22.002
			c1.63-1.083,3.794-2.445,6.52-4.074c3.259-1.63,5.424-2.712,6.519-3.26l5.704,17.928c7.602-17.38,17.113-36.67,28.521-57.857
			c-4.354,0.547-10.874,2.445-19.558,5.704c-2.725,0.547-4.889,1.095-6.519,1.63v-7.334c21.187-7.602,45.086-11.676,71.71-12.224
			c21.722,1.095,33.131,11.409,34.226,30.966c0,16.297-5.437,34.505-16.298,54.598c-0.548,1.63-1.63,1.91-3.26,0.815
			c-11.956-8.149-26.892-14.388-44.818-18.743v-6.519c12.49,0,20.372,0.28,23.632,0.815c7.601-16.298,11.676-31.781,12.223-46.449
			c0.535-5.971-4.074-8.684-13.853-8.149c-14.134,25.542-26.624,52.701-37.485,81.489l-26.892-13.853l1.63,4.075
			c-7.066,3.807-14.4,7.881-22.002,12.223c0,28.801-1.63,54.331-4.89,76.6c-0.547,1.082-1.095,1.63-1.63,1.63
			c0,0.534-0.547,0.267-1.63-0.815c-9.778-7.066-23.632-14.388-41.559-22.002v-6.52c2.712,0,6.239,0.28,10.593,0.815
			c2.713,0,4.609,0,5.705,0c1.082-9.231,1.629-19.01,1.629-29.336c-1.095,1.095-2.992,2.725-5.704,4.89
			c-2.177,1.63-3.539,2.725-4.074,3.259L348.91,454.881z M454.846,455.696c0,2.177,0,4.354,0,6.519
			c15.203-6.519,29.604-9.779,43.189-9.779c15.75,1.63,24.167,9.779,25.262,24.447c-0.548,10.326-3.808,23.913-9.779,40.745
			c0.535,0,1.63,0,3.26,0c2.712-0.535,4.342-0.535,4.89,0v5.704c-34.226,0-63.562,3.795-88.009,11.409
			c-6.519-23.899-10.326-48.347-11.408-73.341L454.846,455.696z M462.996,520.888c4.889-0.548,10.046-1.095,15.482-1.63
			c7.054-16.833,11.676-34.226,13.854-52.153c-0.548-3.794-3.54-5.424-8.964-4.889c-5.984,0-15.216,2.725-27.706,8.149
			C456.196,484.498,458.641,501.33,462.996,520.888z"/>
	</g>
	<g enable-background="new    ">
		<path fill="#599AD2" d="M432.106,537.898l-0.682-2.499c-6.542-23.988-10.41-48.849-11.494-73.891l-0.095-2.192l27.902-4.882
			l-20.583-10.604l-1.91,1.029c-6.615,3.563-13.569,7.42-20.689,11.475c-0.055,28.203-1.708,53.6-4.915,75.509l-0.059,0.402
			l-0.183,0.363c-0.648,1.281-1.417,2.156-2.297,2.618c-0.466,0.407-1.073,0.65-1.745,0.65c-1.116,0-2.014-0.634-3.07-1.668
			c-9.533-6.86-23.297-14.132-40.917-21.615l-1.522-0.647v-10.674h2.5c2.736,0,6.252,0.267,10.746,0.815h3.317
			c0.725-6.79,1.164-13.918,1.31-21.276c-0.495,0.405-1.025,0.833-1.589,1.283c-2.857,2.141-3.654,2.861-3.867,3.074l-2.681,2.678
			l-13.571-33.926l1.693-1.125c1.629-1.081,4.072-2.709,7.329-4.885l0.131-0.082c5.706-3.321,10.213-6.057,13.426-8.149v-15.677
			c-0.414-5.756-0.672-10.496-0.77-14.149c-2.019,0.35-4.536,0.692-7.529,1.024c-2.883,1.131-5.217,1.682-7.128,1.682h-2.5v-11.693
			l1.781-0.535c4.752-1.428,9.587-2.462,14.406-3.083c-0.576-11.196-1.628-22.944-3.129-34.958l-0.31-2.473l37.071-4.753v2.841
			c0,2.114,0.269,5.584,0.799,10.315c0.924,9.287,1.452,16.633,1.601,22.332l0.214-0.107h1.35v-7.199l16.298-0.906v-8.268
			l1.656-0.594c21.342-7.657,45.735-11.819,72.503-12.37l0.088-0.002l0.089,0.004c23.111,1.166,35.423,12.377,36.596,33.324
			l0.004,0.14c0,16.597-5.554,35.308-16.507,55.618c-0.995,2.657-3.018,2.95-3.858,2.95c-0.116,0-0.232-0.004-0.348-0.014
			c9.111,4.175,14.144,12.06,15.002,23.564l0.012,0.159l-0.008,0.159c-3.676,12.484-0.971,4.484-8.724,38.015
			c1.175-0.204,2.15-0.304,2.964-0.304c1.508,0,2.613,0.364,3.38,1.113l0.753,0.736v9.257h-2.5
			c-33.839,0-63.199,3.801-87.265,11.296L432.106,537.898z M425.027,463.483c1.151,23.066,4.698,45.957,10.553,68.114
			c23.461-6.964,51.616-10.581,83.764-10.759v-1.06c-0.469,0.049-1.091,0.141-1.906,0.301l-0.484,0.047h-6.799l1.184-3.336
			c5.832-16.438,9.071-29.855,9.63-39.881c-1.044-13.261-8.533-20.452-22.886-21.975c-13.149,0.021-27.304,3.243-42.075,9.577
			l-3.485,1.494v-7.335L425.027,463.483z M354.847,508.643c17.032,7.314,30.485,14.462,40.021,21.265
			c3.111-21.772,4.688-47.006,4.688-75.027v-1.451l1.26-0.72c6.892-3.937,13.641-7.696,20.093-11.192l-0.384-0.96l-0.097,0.221
			l-0.719-2.258l-2.09-5.226l0.511,0.263l-4.533-14.248l-3.82,1.91c-2.49,1.49-4.623,2.823-6.338,3.963l-3.883,2.579v-4.662
			c0-7.392-0.272-14.731-0.808-21.813l-0.189-2.493l2.493-0.189c6.275-0.476,12.339-0.747,18.062-0.809v-10.354l-9.668,0.537v7.469
			h-5.208c-1.252,0.541-2.532,0.815-3.812,0.815h-2.5v-2.5c0-5.812-0.544-14.228-1.618-25.014c-0.36-3.215-0.604-5.898-0.729-8.013
			l-26.595,3.41c1.457,12.117,2.457,23.948,2.973,35.207l0.108,2.365l-2.355,0.237c-4.681,0.471-9.398,1.362-14.048,2.652v2.557
			c0.832-0.221,1.849-0.555,3.087-1.053l0.319-0.128l0.341-0.038c4.714-0.516,8.165-1.043,10.255-1.569l3.11-0.782v3.207
			c0,3.788,0.272,9.485,0.809,16.933l0.006,0.18v18.449l-1.111,0.743c-3.323,2.219-8.279,5.249-14.732,9.007
			c-2.252,1.504-4.114,2.746-5.583,3.724l9.384,23.46c0.437-0.336,0.941-0.719,1.525-1.156c2.546-2.034,4.395-3.616,5.435-4.656
			l4.268-4.27v6.038c0,10.342-0.554,20.31-1.646,29.627l-0.259,2.209l-8.234-0.019c-3.066-0.377-5.64-0.618-7.788-0.728V508.643z
			 M457.523,452.721v5.754c14.197-5.667,27.869-8.538,40.689-8.538l0.257,0.013c3.559,0.368,6.777,1.051,9.654,2.047
			c-11.633-7.905-26.4-14.064-43.912-18.318l-1.91-0.464v-6.351c-3.716,8.679-7.269,17.507-10.645,26.455l-0.173,0.458
			L457.523,452.721z M422.583,435.851l25.393,13.081c10.634-27.831,22.955-54.461,36.642-79.195l0.67-1.21l1.381-0.075
			c7.042-0.385,11.703,0.812,14.326,3.68c1.678,1.835,2.404,4.23,2.16,7.12c-0.566,14.915-4.756,30.846-12.453,47.351l-0.801,1.717
			l-1.87-0.307c-2.05-0.336-7.323-0.734-20.727-0.778v2.06c17.205,4.362,31.829,10.573,43.497,18.477
			c10.521-19.522,15.864-37.394,15.879-53.121c-1.041-18.149-11.433-27.484-31.764-28.535c-25.498,0.533-48.759,4.397-69.172,11.491
			v2.266c1.016-0.25,2.127-0.498,3.328-0.742c8.838-3.31,15.361-5.198,19.936-5.773l4.813-0.605l-2.299,4.271
			c-11.337,21.055-20.903,40.459-28.432,57.674L422.583,435.851z M416.59,412.224l4.596,14.443
			c6.533-14.479,14.392-30.357,23.435-47.349c-3.731,0.946-8.409,2.473-13.98,4.564l-0.386,0.111
			c-2.508,0.504-4.573,1.017-6.141,1.524v17.267h-2.5c-5.578,0-11.521,0.211-17.702,0.63c0.331,4.961,0.535,10.034,0.611,15.149
			c0.87-0.537,1.794-1.098,2.771-1.682l0.165-0.09L416.59,412.224z M464.309,422.23h0.494c10.75,0,18.035,0.199,22.125,0.606
			c6.94-15.326,10.717-30.065,11.231-43.833l0.008-0.13c0.133-1.485-0.149-2.586-0.864-3.368c-1.352-1.479-4.487-2.209-8.991-2.115
			C479.739,388.975,471.71,405.315,464.309,422.23z M461.22,523.622l-0.488-2.191c-4.368-19.619-6.855-36.769-7.392-50.973
			l-0.064-1.707l1.566-0.68c12.863-5.586,22.214-8.32,28.579-8.355c0.705-0.066,1.384-0.1,2.022-0.1c7.404,0,9.155,4.468,9.54,7.131
			l0.048,0.329l-0.04,0.33c-2.195,18.07-6.916,35.84-14.03,52.818l-0.576,1.375l-1.484,0.146c-5.11,0.503-10.308,1.05-15.449,1.626
			L461.22,523.622z M458.411,471.98c0.628,13.03,2.886,28.543,6.721,46.175c3.929-0.433,7.88-0.847,11.788-1.237
			c6.574-16.028,10.968-32.764,13.065-49.771c-0.184-1.025-0.772-2.53-4.542-2.53c-0.511,0-1.067,0.029-1.653,0.087l-0.245,0.012
			C478.201,464.715,469.75,467.158,458.411,471.98z"/>
	</g>
	<g enable-background="new    ">
		<path fill="#599AD2" d="M550.022,492.524c2.164-1.082,4.889-1.897,8.148-2.444c-1.095-16.833-1.362-36.67-0.814-59.487
			c0-21.722,0.535-39.649,1.629-53.783c-0.547,0-1.629,0-3.259,0c-1.095,0.547-2.177,0.815-3.26,0.815v-7.334
			c20.093-3.794,40.745-5.705,61.933-5.705v-5.704h16.297v13.038h-10.594c1.631,28.254,2.164,61.397,1.631,99.417
			c1.082-0.535,2.164-0.815,3.26-0.815c1.629-0.535,2.711-0.815,3.258-0.815l4.891,25.261c-1.096,0-2.992,0.281-5.705,0.815
			c-2.178,0.548-4.074,1.095-5.703,1.63c0,4.354-0.281,10.326-0.816,17.928c0,8.148-0.279,14.12-0.814,17.928l-28.521-0.815
			c0.535-3.26,0.816-7.614,0.816-13.038c0.533-5.424,0.814-9.778,0.814-13.038c-7.615,2.177-18.477,5.704-32.596,10.594
			c-2.725,1.095-4.623,1.909-5.705,2.444L550.022,492.524z M584.247,408.591c0,10.874,0,21.187,0,30.966
			c1.082-0.535,2.98-0.815,5.705-0.815c2.164-0.535,3.795-0.815,4.889-0.815c0-10.861-0.279-21.187-0.814-30.966
			c-1.096,0-2.725,0.28-4.889,0.815C586.96,407.776,585.329,408.056,584.247,408.591z M584.247,446.076
			c0,13.039,0.268,24.727,0.816,35.041c2.711-1.083,5.703-1.897,8.963-2.445c0-14.668,0.268-26.077,0.814-34.226
			C591.581,444.446,588.042,444.994,584.247,446.076z M593.212,372.735c-2.725,0-4.891,0.28-6.52,0.815
			c-1.096,8.149-1.629,17.66-1.629,28.521c1.082-0.535,2.443-0.815,4.074-0.815c2.164-0.535,3.793-0.815,4.889-0.815
			C594.026,390.128,593.747,380.884,593.212,372.735z M717.075,442.816h15.482v11.408c-16.846,0-33.957,0.815-51.338,2.445
			c-2.178,4.889-4.621,10.874-7.334,17.928c21.723-3.26,36.391-1.083,44.004,6.519c3.795,3.807,5.705,8.429,5.705,13.853
			c0,13.039-4.355,26.345-13.039,39.931c0,0.534-0.814,0.814-2.445,0.814c-14.668-9.778-31.246-16.565-49.707-20.372l0.814-5.704
			c11.408,0,20.639,0.814,27.707,2.444c4.889-10.313,7.334-18.742,7.334-25.262c0-4.889-2.445-7.054-7.334-6.519
			c-13.039,0-29.617,2.725-49.709,8.149c2.711-11.409,5.971-20.373,9.779-26.892c-3.26,0.548-7.615,1.095-13.039,1.63
			c-4.355,1.095-7.334,1.63-8.963,1.63v-5.704c31.5-6.52,62.197-10.046,92.082-10.594V442.816z M700.776,376.81
			c18.463,0,27.707,7.334,27.707,22.002c0,9.779-1.629,19.837-4.889,30.151h4.889v5.705c-35.32,0-67.637,3.259-96.973,9.778
			c-2.725-17.927-4.354-38.567-4.889-61.932l26.076-4.074v6.519c2.713-1.083,5.705-1.897,8.965-2.445
			c-0.549-2.712-0.816-6.519-0.816-11.409c-0.547-4.889-0.814-8.684-0.814-11.408l30.15-2.445c0,2.177,0,5.437,0,9.779
			c0.535,4.354,0.816,7.881,0.816,10.594C694.259,377.09,697.517,376.81,700.776,376.81z M652.698,390.663
			c0,2.177,0.268,5.169,0.814,8.964c0,4.354,0,7.614,0,9.779c2.713-1.083,5.705-1.897,8.965-2.445
			c0-5.972-0.281-12.223-0.814-18.743c-1.096,0-2.445,0.28-4.076,0.815C655.411,389.581,653.78,390.128,652.698,390.663z
			 M656.772,434.667c1.631-0.535,3.26-0.815,4.891-0.815c0.533-6.52,0.814-13.573,0.814-21.188c-3.26,0-5.984,0.548-8.148,1.63
			C655.411,420.814,656.226,427.613,656.772,434.667z M690.999,384.144c0.535,5.984,0.814,12.223,0.814,18.743
			c1.082,0,2.711-0.268,4.889-0.815c1.631,0,2.713,0,3.26,0c0.535-2.712,0.814-5.157,0.814-7.334
			c0.535-7.602-2.443-11.128-8.963-10.594H690.999z M690.999,430.593c1.629,0,2.979,0,4.074,0
			c2.711-7.054,4.342-14.668,4.889-22.817c-2.725,0-5.438,0.28-8.148,0.815c0,2.177,0,5.704,0,10.594
			C691.267,424.074,690.999,427.881,690.999,430.593z"/>
	</g>
	<g enable-background="new    ">
		<path fill="#599AD2" d="M708.258,538.056h-0.757l-0.63-0.42c-14.319-9.546-30.746-16.276-48.825-20.003l-2.303-0.475l1.454-10.178
			h2.168c10.51,0,19.336,0.7,26.281,2.082c4.155-9.121,6.26-16.649,6.26-22.399c0-3.428-1.267-4.099-3.454-4.099
			c-0.344,0-0.716,0.022-1.108,0.065l-0.271,0.015c-12.736,0-29.241,2.712-49.058,8.063l-2.826,0.763l1.131,5.842h-3.03
			c-0.873,0-2.608,0.254-5.158,0.755c-1.334,0.336-2.594,0.681-3.765,1.031c-0.063,4.098-0.327,9.417-0.802,16.174
			c-0.002,8.123-0.284,14.242-0.839,18.188l-0.312,2.215l-33.616-0.961l0.464-2.822c0.52-3.166,0.783-7.417,0.783-12.633
			l0.012-0.245c0.366-3.719,0.604-6.837,0.72-9.432c-7.317,2.192-17.094,5.404-29.137,9.574c-2.609,1.049-4.45,1.837-5.473,2.343
			l-2.975,1.471l-5.817-32.001l1.677-0.838c1.854-0.927,4.079-1.68,6.635-2.245c-0.977-16.333-1.206-35.666-0.682-57.511
			c-0.001-20.36,0.482-37.589,1.438-51.223h-0.017c-1.253,0.541-2.532,0.815-3.812,0.815h-2.5v-11.906l2.036-0.384
			c19.403-3.664,39.541-5.593,59.896-5.739v-5.713h21.297v18.038h-10.449c1.3,23.782,1.85,51.389,1.64,82.266l0.1-0.021
			c30.622-6.338,60.915-9.899,90.089-10.593v-5.756h20.482v16.408h-2.5c-16.217,0-32.91,0.773-49.645,2.299
			c-1.56,3.566-3.288,7.762-5.159,12.523c4.974-0.608,9.591-0.916,13.771-0.916c12.874,0,22.338,2.933,28.131,8.716
			c4.273,4.288,6.438,9.542,6.438,15.622c0,13.313-4.432,27.062-13.174,40.871C712.722,536.816,711.582,538.056,708.258,538.056z
			 M661.355,513.227c17.486,3.874,33.457,10.507,47.516,19.737c8.21-12.982,12.371-25.815,12.371-38.153
			c0-4.775-1.628-8.729-4.976-12.088c-4.817-4.81-13.093-7.25-24.594-7.25c-5.099,0-10.908,0.484-17.269,1.438l-4.245,0.637
			l1.541-4.007c2.747-7.144,5.231-13.216,7.383-18.047l0.596-1.335l1.455-0.137c16.519-1.549,33.013-2.372,49.071-2.45v-6.414
			h-10.482v5.659l-2.454,0.045c-28.986,0.531-59.129,3.939-89.628,10.134v0.892c1.335-0.225,3.213-0.618,5.854-1.281l0.364-0.063
			c5.306-0.523,9.636-1.064,12.87-1.607l5.267-0.885l-2.694,4.612c-3.206,5.488-6.054,12.92-8.485,22.134
			c18.369-4.73,33.87-7.135,46.125-7.153c6.354-0.639,9.966,2.719,9.966,9.019c0,6.869-2.549,15.729-7.575,26.333l-0.861,1.817
			l-1.959-0.452c-6.401-1.476-14.797-2.272-24.979-2.37L661.355,513.227z M594.571,529.876l23.46,0.671
			c0.354-3.7,0.533-8.852,0.533-15.363l0.006-0.176c0.546-7.744,0.811-13.551,0.811-17.752v-1.811l1.721-0.565
			c1.751-0.575,3.727-1.14,5.873-1.679l0.126-0.028c1.251-0.247,2.312-0.437,3.214-0.575l-3.877-20.025
			c-0.16,0.051-0.332,0.106-0.518,0.167l-0.38,0.125h-0.399c-0.69,0-1.395,0.182-2.152,0.556l-3.664,1.811l0.057-4.087
			c0.532-37.931-0.016-71.319-1.627-99.238l-0.152-2.644h10.742v-8.038h-11.297v5.704h-2.5c-20.185,0-40.167,1.777-59.433,5.284
			v2.025l0.17-0.085h6.55l-0.209,2.693c-1.075,13.903-1.621,31.933-1.621,53.59c-0.546,22.746-0.272,42.686,0.81,59.325l0.146,2.253
			l-2.228,0.374c-2.194,0.369-4.12,0.864-5.749,1.479l3.965,21.81c0.833-0.351,1.791-0.744,2.884-1.183l0.113-0.042
			c14.051-4.866,25.062-8.444,32.727-10.635l3.188-0.911v3.315c0,3.257-0.267,7.563-0.814,13.161
			C595.042,523.422,594.883,526.938,594.571,529.876z M628.398,467.049h2.063l4.211,21.753l0.259-1.089
			c2.19-9.217,4.776-16.969,7.712-23.127c-2.384,0.31-5.095,0.615-8.109,0.914c-4.466,1.117-7.54,1.66-9.393,1.66h-0.707
			c-0.003,0.244-0.006,0.489-0.009,0.733c0.096-0.008,0.191-0.014,0.288-0.019C626.552,467.283,627.603,467.049,628.398,467.049z
			 M582.899,484.573l-0.185-3.482c-0.544-10.224-0.82-22.058-0.82-35.173v-1.887l1.814-0.518c4.017-1.145,7.811-1.726,11.279-1.726
			h2.674l-0.18,2.667c-0.536,7.998-0.809,19.456-0.809,34.058v2.115l-2.086,0.35c-3.077,0.517-5.92,1.291-8.45,2.301
			L582.899,484.573z M586.896,447.842c0.022,10.872,0.239,20.821,0.646,29.653c1.326-0.404,2.706-0.756,4.134-1.055
			c0.021-12.149,0.239-22.054,0.648-29.526C590.599,447.074,588.785,447.384,586.896,447.842z M629.589,447.309l-0.402-2.646
			c-2.728-17.944-4.381-38.888-4.916-62.25l-0.051-2.189l31.126-4.863v5.927c1.165-0.35,2.372-0.661,3.615-0.93
			c-0.31-2.495-0.463-5.556-0.467-9.271c-0.54-4.859-0.814-8.744-0.814-11.548v-2.306l35.15-2.85v12.337
			c0.374,3.06,0.616,5.666,0.734,7.878c2.479-0.297,4.945-0.447,7.359-0.447c24.967,0,30.207,13.324,30.207,24.502
			c0,8.966-1.354,18.252-4.028,27.651h4.028v10.705h-2.5c-34.966,0-67.41,3.27-96.431,9.719L629.589,447.309z M629.322,384.487
			c0.552,21.138,2.036,40.216,4.418,56.787c6.79-1.455,13.76-2.74,20.897-3.854l-0.21-2.718c-0.54-6.965-1.354-13.747-2.417-20.157
			l-0.303-1.82l0.077-0.039l-0.625,0.249v-13.29c-0.54-3.786-0.814-6.861-0.814-9.142v-1.553l1.393-0.688
			c1.253-0.62,2.988-1.206,5.302-1.792c1.89-0.613,3.451-0.912,4.771-0.912h2.304l0.188,2.296c0.547,6.675,0.823,13.05,0.823,18.946
			v2.115l-2.086,0.35c-1.743,0.293-3.412,0.668-4.992,1.123c1.416-0.256,2.945-0.384,4.578-0.384h2.5v2.5
			c0,7.519-0.276,14.716-0.823,21.391l-0.176,2.156c19.56-2.589,40.299-3.942,62.005-4.039v-0.71h-5.801l1.028-3.253
			c3.167-10.019,4.772-19.91,4.772-29.397c0-13.305-8.01-19.502-25.207-19.502c-3.059,0-6.212,0.263-9.372,0.782l-2.905,0.477
			v-2.944c0-2.556-0.261-5.921-0.798-10.289l-0.019-0.305v-7.068l-25.096,2.035c0.104,2.373,0.353,5.33,0.744,8.83l0.016,0.278
			c0,4.728,0.258,8.399,0.767,10.913l0.513,2.534l-2.549,0.428c-3.076,0.517-5.92,1.291-8.452,2.301l-3.427,1.368v-7.288
			L629.322,384.487z M661.811,436.194c-1.332,0-2.715,0.232-4.111,0.69l-0.392,0.128c1.909-0.285,3.832-0.558,5.765-0.819H661.811z
			 M657.263,415.711c0.79,5.052,1.429,10.311,1.907,15.69c0.104-0.016,0.209-0.031,0.313-0.046
			c0.37-5.138,0.581-10.573,0.631-16.216C659.077,415.255,658.126,415.446,657.263,415.711z M655.393,392.162
			c0.097,1.872,0.346,4.2,0.742,6.951l0.025,0.356v6.266c1.271-0.382,2.591-0.716,3.953-1.002
			c-0.048-4.368-0.245-8.987-0.589-13.788c-0.318,0.087-0.655,0.189-1.012,0.306l-0.168,0.049
			C657.069,391.621,656.11,391.912,655.393,392.162z M581.895,443.422v-36.543l1.393-0.688c1.403-0.693,3.267-1.045,5.689-1.072
			c2.3-0.557,3.957-0.816,5.197-0.816h2.367l0.129,2.363c0.543,9.921,0.818,20.385,0.818,31.103v2.5h-2.5
			c-0.587,0-1.807,0.129-4.289,0.742l-0.295,0.073H590.1c-3.222,0-4.334,0.426-4.598,0.556L581.895,443.422z M586.895,410.281
			v25.954c0.854-0.093,1.816-0.143,2.899-0.151c1.016-0.246,1.906-0.434,2.69-0.567c-0.032-8.886-0.257-17.579-0.668-25.908
			c-0.539,0.107-1.177,0.249-1.932,0.435l-0.295,0.073h-0.305C588.258,410.118,587.479,410.187,586.895,410.281z M696.938,432.935
			h-8.292v-2.5c0-2.804,0.274-6.688,0.814-11.547v-12.51l2.017-0.397c2.9-0.572,5.805-0.862,8.632-0.862h2.674l-0.18,2.667
			c-0.562,8.367-2.26,16.29-5.049,23.546L696.938,432.935z M694.461,410.539l-0.016,8.766c-0.34,3.036-0.572,5.664-0.695,7.856
			c1.819-5.315,3.037-10.994,3.634-16.943C696.415,410.288,695.439,410.395,694.461,410.539z M582.711,405.939v-4.025
			c0-10.998,0.556-20.706,1.651-28.854l0.209-1.554l1.489-0.489c1.926-0.632,4.313-0.939,7.299-0.939h2.341l0.153,2.336
			c0.545,8.284,0.82,17.661,0.82,27.871v2.5h-2.5c-0.587,0-1.807,0.129-4.289,0.742l-0.295,0.073h-0.305
			c-1.223,0-2.22,0.187-2.966,0.556L582.711,405.939z M589.103,375.401c-0.823,6.751-1.284,14.562-1.375,23.276
			c0.402-0.042,0.817-0.067,1.244-0.076c1.019-0.247,1.911-0.435,2.697-0.569c-0.033-8.257-0.253-15.93-0.655-22.871
			C590.32,375.215,589.683,375.295,589.103,375.401z M691.961,405.229h-2.5v-2.5c0-6.319-0.271-12.55-0.805-18.52l-0.243-2.723
			h3.449c3.902-0.297,6.843,0.659,8.863,2.826c2.101,2.254,3.009,5.738,2.698,10.355c-0.007,2.298-0.289,4.828-0.861,7.73
			l-0.398,2.016h-5.009C694.922,404.962,693.221,405.229,691.961,405.229z M693.858,386.454c0.332,4.384,0.527,8.888,0.585,13.448
			c0.511-0.104,1.105-0.239,1.797-0.413l0.3-0.075h1.472c0.273-1.776,0.412-3.396,0.412-4.834l0.006-0.176
			c0.224-3.176-0.247-5.487-1.362-6.683C696.362,386.964,695.309,386.547,693.858,386.454z"/>
	</g>
	<g>
		<polygon fill="#9AC1E8" points="851.358,273.292 951.358,296.792 882.358,311.792 		"/>
		<polygon fill="#4683B9" points="871.358,340.292 882.358,311.792 851.358,273.292 		"/>
		<polygon fill="#599AD2" points="951.358,296.792 871.358,340.292 882.358,311.792 		"/>
	</g>
	<g>
		<polygon fill="#9BC3E7" points="1001.35,430.627 1001.184,446.127 956.184,451.794 		"/>
		<polygon fill="#599CD1" points="1001.204,455.627 1001.184,446.127 956.184,451.794 		"/>
	</g>
	<polygon fill="#599AD2" points="1014.156,1033.791 791.156,987.291 751.156,1032.291 640.656,968.791 541.656,996.291 
		471.16,918.79 197.16,1044.291 82.16,930.79 -0.188,1027.26 -0.188,1050 0.48,1050 246.33,1050 1079.808,1050 1079.808,1007.26 	
		"/>
</g>
</svg>
