<?xml version="1.0" encoding="utf-8"?>
<!-- Generator: Adobe Illustrator 16.0.0, SVG Export Plug-In . SVG Version: 6.00 Build 0)  -->
<!DOCTYPE svg PUBLIC "-//W3C//DTD SVG 1.1//EN" "http://www.w3.org/Graphics/SVG/1.1/DTD/svg11.dtd">
<svg version="1.1" id="图层_1" xmlns="http://www.w3.org/2000/svg" xmlns:xlink="http://www.w3.org/1999/xlink" x="0px" y="0px"
	 width="622px" height="130px" viewBox="0 0 622 130" enable-background="new 0 0 622 130" xml:space="preserve">
<g>
	<g enable-background="new    ">
		<path fill="#FFFFFF" d="M126.624,80.837h-6.016l0.034,10.972c-5.082,1.322-10.402,2.575-15.962,3.76l-2.974-13.228l7.725-1.606
			V66.208h-6.699V53.732h6.699V41.838h12.681v11.895h7.144v12.476h-7.144v12.92l4.033-1.06L126.624,80.837z M138.587,53.22
			l0.034-1.914h-8.989v0.479h-4.067v-6.699h13.022v-4.272h12.681v4.272h15.347v9.536h-2.153v-3.315h-13.159v1.914h10.972v30.044
			h5.127v10.015l-3.179,0.034c-1.55-1.504-3.042-2.865-4.478-4.085c-1.436-1.218-3.407-2.751-5.913-4.597l-7.144,7.656
			l-11.313-7.861l-7.383,8.887l-5.093-0.034V83.264h5.776v-1.265h-0.034v-4.375h0.034V75.3h-0.034l0.034-6.802l2.769,0.103V53.254
			L138.587,53.22z M135.955,87.297l8.647,6.255c-3.076,3.782-5.139,6.26-6.187,7.434c-1.049,1.174-3.1,3.253-6.152,6.238
			l-8.066-7.622c2.757-2.484,4.785-4.392,6.084-5.726C131.58,92.544,133.471,90.351,135.955,87.297z M153.113,61.765h-15.313v2.461
			h15.313V61.765z M153.113,68.601h-15.313v2.324h15.313V68.601z M153.113,75.3h-15.313v2.324h15.313V75.3z M137.801,84.665h15.313
			v-2.666h-15.313V84.665z M146.824,95.466l7.246-7.588c3.736,2.963,6.187,5.02,7.349,6.17c1.162,1.149,2.905,3.081,5.229,5.793
			l-7.041,7.622c-2.553-2.803-4.648-5.014-6.289-6.631C151.678,99.214,149.513,97.425,146.824,95.466z"/>
		<path fill="#FFFFFF" d="M173.895,43.82h61.353v18.662h-6.323v-4.136h-6.221v-2.769h-38.486l-1.812,7.383h-8.511V43.82z
			 M214.158,91.228h-9.023v7.007h-28.711V87.092h37.734V91.228z M217.85,84.084h-33.018l-3.35-4.648l4.785-21.67l12.373,0.239
			l-0.479,2.666h28.096v10.732h-29.189l-0.684,3.076h35.547l-1.265,18.936c-0.137,1.982-0.427,3.925-0.872,5.828
			c-0.443,1.901-1.264,3.326-2.461,4.271c-1.195,0.945-3.435,1.419-6.716,1.419h-13.057V93.654h6.802
			c1.002,0,1.72-0.131,2.153-0.394c0.433-0.261,0.694-0.974,0.786-2.136L217.85,84.084z"/>
		<path fill="#FFFFFF" d="M261.805,43.718l-0.82,1.23h13.057c-0.889,2.985-1.459,4.751-1.709,5.298l-2.324,5.298h-1.846l0.581,5.605
			l-10.732,0.342l-0.342-3.726l1.025-2.222h-1.743c-0.935,1.777-2.04,3.68-3.315,5.708l-10.732-4.375
			c1.663-2.711,3.093-5.212,4.29-7.502c1.195-2.29,1.953-3.833,2.272-4.631l1.743-4.17L261.805,43.718z M257.669,105.378h-11.895
			V69.421h11.895V105.378z M265.394,63.2l2.29,1.606v3.589l-1.367,0.923h-6.221v-2.188h-6.699l-1.743-1.401l4.272-4.854l0.239,2.666
			L265.394,63.2z M260.54,71.95h28.848v20.337h-7.52v6.973H260.54V71.95z M270.008,78.547v3.452h10.151v-3.452H270.008z
			 M280.057,91.569v-3.452h-10.049v3.452H280.057z M285.799,61.115l1.401,4.136l15.347-2.529l-0.581-1.606h2.529l0.034,36.982
			c0,1.641-0.098,2.968-0.291,3.981s-0.587,1.926-1.179,2.734c-0.593,0.809-1.384,1.299-2.376,1.471
			c-0.99,0.17-2.523,0.256-4.597,0.256h-11.211V94.68h5.776c0.433,0,0.809-0.21,1.128-0.632c0.318-0.422,0.479-1.441,0.479-3.06
			V69.523H270.11v-8.408H285.799z M298.309,55.339c0.387,1.345,0.604,2.119,0.649,2.324l0.718,3.384l-10.767,1.675
			c-0.479-2.119-0.775-3.395-0.889-3.828l-1.06-3.589h-2.529l-1.846,3.931l-10.391-2.358c0.82-1.846,1.641-3.731,2.461-5.657
			c0.82-1.925,2.073-5.36,3.76-10.305l10.493,1.914l-0.615,2.017h18.184v10.459L298.309,55.339z"/>
		<path fill="#FFFFFF" d="M341.717,55.92h-9.741l-0.205,5.298h-4.922v17.329h3.657c-0.183,2.324-0.285,3.669-0.308,4.033
			l-0.615,5.537c-1.572,1.914-2.484,2.985-2.734,3.213l-4.888,4.819l5.024,5.64c-0.319,1.436-0.547,2.29-0.684,2.563l-1.025,2.188
			l-13.467-4.956c0.82-2.188,1.84-5.082,3.06-8.682c1.218-3.6,2.112-8.465,2.683-14.595c0.569-6.13,0.854-13.797,0.854-23.003
			V43.103h58.242V55.92h-16.543l0.308-3.589l-18.252-0.444L341.717,55.92z M343.768,54.416l13.843,0.342l-0.684,8.784h19.824
			c-0.251,4.421-0.399,7.725-0.444,9.912l-0.239,9.468c-0.023,0.547-0.132,2.911-0.325,7.093s-0.729,7.251-1.605,9.211
			c-0.878,1.959-2.029,3.264-3.453,3.914c-1.424,0.648-3.708,0.974-6.853,0.974h-7.485V90.886h4.478
			c1.002,0,1.651-0.165,1.948-0.496c0.296-0.329,0.455-1.019,0.479-2.067l0.239-11.758h-7.622c-0.639,2.188-1.362,4.427-2.17,6.716
			c-0.81,2.291-2.461,5.299-4.957,9.023c-2.494,3.727-5.27,6.854-8.322,9.383l-5.537,4.751l-10.151-10.288
			c8.385-7.747,13.455-13.66,15.21-17.739l0.82-1.846h-11.895V63.542h13.979L343.768,54.416z"/>
		<path fill="#FFFFFF" d="M402.864,106.062h-13.296l-0.034-26.113l-8.374-4.99c0.797-1.07,1.418-1.953,1.863-2.649
			c0.443-0.694,1.344-2.397,2.699-5.109c1.355-2.711,2.838-6.545,4.443-11.501c1.607-4.956,3.048-9.77,4.324-14.441l13.774,3.145
			l-1.367,5.811h-5.879v13.364h1.846V106.062z M403.172,52.434h16.851l-2.529-7.793l11.587-2.666l3.247,10.459h14.937v8.784h-44.092
			V52.434z M405.359,84.255h39.854v21.089h-39.854V84.255z M405.701,63.815h38.35v7.759h-38.35V63.815z M405.94,74.172h38.35v7.725
			h-38.35V74.172z M418.245,92.766v3.76h13.911v-3.76H418.245z"/>
		<path fill="#FFFFFF" d="M471.087,86.613c-0.661,2.165-1.202,3.88-1.624,5.144c-0.422,1.266-0.997,2.884-1.726,4.854
			c-0.729,1.971-1.208,3.207-1.436,3.709l-1.504,3.35l-11.416-4.512c0.843-1.504,1.714-3.156,2.614-4.956s1.715-3.987,2.444-6.563
			l1.333-4.512L471.087,86.613z M489.373,46.452h19.824l0.068,33.701l-1.504-1.743l-12.236,6.221h-2.29l-8.545-7.246l-4.272,3.452
			h-11.313v2.666l-10.835-3.35V46.452h16.099l1.846-5.298h13.159V46.452z M496.927,92.697l3.76,6.699
			c0.911,1.663,1.128,2.854,0.649,3.571c-0.479,0.719-1.254,1.355-2.324,1.914c-1.071,0.559-2.632,0.838-4.683,0.838h-18.218
			c-3.441,0-5.161-1.652-5.161-4.956v-5.64l2.803-10.356l-2.803-0.684v-1.265h7.964l-4.956,4.956
			c4.352,3.669,6.927,5.937,7.725,6.802l6.699,7.007L496.927,92.697z M496.175,55.236h-24.883v3.315h24.883V55.236z M496.175,63.542
			h-24.883v3.35h24.883V63.542z M496.175,72.087h-24.883v3.315h24.883V72.087z M477.068,87.399l7.52-7.041
			c4.967,4.398,7.884,7.019,8.75,7.861l2.188,2.188l-7.144,7.588C484.964,94.44,481.192,90.909,477.068,87.399z M507.078,81.315
			c1.139,1.892,1.982,3.305,2.529,4.238l2.769,4.99c1.549,2.78,2.358,4.228,2.427,4.341l2.427,5.195l-10.63,5.298
			c-3.441-6.472-5.674-10.606-6.699-12.407l-3.555-6.255L507.078,81.315z"/>
	</g>
</g>
</svg>
