<?xml version="1.0" encoding="utf-8"?>
<!-- Generator: Adobe Illustrator 16.0.0, SVG Export Plug-In . SVG Version: 6.00 Build 0)  -->
<!DOCTYPE svg PUBLIC "-//W3C//DTD SVG 1.1//EN" "http://www.w3.org/Graphics/SVG/1.1/DTD/svg11.dtd">
<svg version="1.1" id="图层_1" xmlns="http://www.w3.org/2000/svg" xmlns:xlink="http://www.w3.org/1999/xlink" x="0px" y="0px"
	 width="622px" height="130px" viewBox="0 0 622 130" enable-background="new 0 0 622 130" xml:space="preserve">
<g>
	<g enable-background="new    ">
		<path fill="#FFFFFF" d="M108.812,50.754h-4.033V39.475h30.83v1.367h-4.033v42.109h4.375c-2.165,3.236-3.669,5.417-4.512,6.546
			c-0.844,1.127-3.031,3.901-6.563,8.322l6.323,5.537h-10.151V93.308l-16.03,2.427l-1.367-11.621l5.161-0.718V50.754z
			 M118.963,55.949h3.931v-5.195h-3.931V55.949z M122.894,63.913h-3.931v4.854h3.931V63.913z M118.963,82.37l3.931-0.684V76.73
			h-3.931V82.37z M136.736,104.86l-8.853-7.383c4.329-5.309,7.325-9.183,8.989-11.621l2.769-4.033l8.169,6.084l0.82,2.188
			c-1.23,1.755-2.581,3.641-4.05,5.656C143.11,97.769,140.496,100.804,136.736,104.86z M134.104,43.029h30.898v37.495h-3.008
			l-1.948-2.29l-3.008,2.29h-14.868l-3.008-2.188l-1.948,2.188h-3.11V43.029z M153.826,54.924h-8.442v14.424h8.442V54.924z
			 M159.603,81.345c3.6,5.742,6.938,11.427,10.015,17.056l-10.698,6.221c-3.988-7.429-6.506-12.009-7.554-13.74l-2.051-3.418
			L159.603,81.345z"/>
		<path fill="#FFFFFF" d="M194.158,86.198h-2.734v17.192h-10.22V77.072l-2.598,3.11l-6.221-11.758
			c1.48-1.641,2.842-3.247,4.084-4.819s2.951-4.551,5.127-8.938c2.176-4.386,3.606-7.73,4.29-10.032l2.017-6.563l13.057,3.691
			l-2.222,5.469h-6.494v18.081h1.914V86.198z M216.272,80.764l5.776-18.936l12.476,4.512l-6.768,21.567l10.938-0.103v14.219h-45.288
			V87.907h6.392l1.401,2.905l16.543-3.931L216.272,80.764z M209.231,49.113l-2.256-7.793l13.604-2.324l3.35,10.117h13.706v13.911
			l-6.528-0.034l-9.98-3.452l-1.47,3.589h-7.725l-0.786-2.563l-11.006,2.461h-5.879V49.113H209.231z M202.293,88.488l-5.195-22.729
			l12.476-2.734l5.776,22.354L202.293,88.488z"/>
		<path fill="#FFFFFF" d="M264.944,86.232l5.64-2.222l4.17,10.459l-19.619,8.306l-4.956-10.698c0.797-0.273,1.424-0.62,1.88-1.043
			c0.455-0.421,0.684-1.121,0.684-2.102l-0.034-14.629h-8.169v-12.92h10.186l2.324,2.085l2.085-2.085h5.811V86.232z M245.667,47.302
			l8.784-8.066c4.01,4.193,8.009,8.534,11.997,13.022l-9.126,7.964C253.402,55.824,249.518,51.518,245.667,47.302z M276.6,91.496
			l-4.717-10.493l-3.828,1.504v-2.769h11.074v-3.11h-9.434V65.075h9.434v-3.008h-11.416V50.788h4.17l-3.008-9.023l12.236-3.213
			l4.375,12.236h2.188l4.17-11.313l12.681,2.529l-3.11,8.887h4.854v11.177h-13.296v3.008h12.134v11.553h-12.134v3.11h14.561v11.758
			h-14.561v11.758h-13.843V91.496H276.6z"/>
		<path fill="#FFFFFF" d="M338.772,72.355l0.786,10.015l-22.627,3.35l-0.786-6.118l8.306-11.997l-8.066,1.162l-2.769-7.827
			c3.304-5.719,6.072-11.028,8.306-15.928l2.769-6.016l9.229,4.136l-7.178,15.928l1.982-0.342l3.691-6.46l8.989,3.691l-9.331,17.329
			L338.772,72.355z M315.086,101.955l-1.265-11.484c6.768-0.957,10.823-1.572,12.168-1.846l12.065-2.324l1.606,10.459
			C331.526,98.605,323.334,100.337,315.086,101.955z M338.636,51.677v-9.57h38.657v59.404h-38.657v-1.743l4.033-1.265l-2.188-14.15
			l1.948-0.718l-1.367-13.604l-2.427,0.444v-2.769l6.357-12.783L338.636,51.677z M353.538,54.582h-3.726v11.416h3.726V54.582z
			 M349.813,88.146h3.726V77.072h-3.726V88.146z M365.501,54.582h-3.794v11.416h3.794V54.582z M365.501,88.283V77.072h-3.794v11.211
			H365.501z"/>
		<path fill="#FFFFFF" d="M395.374,60.358l-0.239,9.434l-5.605,3.486l-7.52-12.92c6.79-4.329,11.899-7.73,15.329-10.203
			c3.43-2.472,7.913-6.192,13.45-11.16h11.074c1.709,1.709,3.457,3.39,5.247,5.042c1.788,1.652,4.277,3.623,7.468,5.913
			c3.189,2.29,8.282,5.52,15.278,9.69l-6.699,13.398l-6.016-3.452l0.034-8.887H423.88l-7.485-5.674l-6.597,5.332H395.374z
			 M412.464,62.99c-0.046,3.828-0.103,6.898-0.171,9.212c-0.068,2.313-0.319,5.195-0.752,8.646
			c-0.434,3.453-1.572,6.825-3.418,10.117c-1.846,3.293-3.675,6.027-5.485,8.203c-1.813,2.176-3.801,4.188-5.965,6.033
			l-11.211-11.074c1.549-1.186,2.939-2.313,4.17-3.384c1.23-1.07,2.432-2.397,3.605-3.981s2.216-3.686,3.128-6.307
			c0.911-2.62,1.355-5.354,1.333-8.203l0.103-9.263H412.464z M419.983,103.562V63.332h14.629v40.229H419.983z"/>
		<path fill="#FFFFFF" d="M466.878,58.239l2.837-0.444l4.136-6.802l8.306,4.854l-9.468,16.611l5.435-0.923l1.846,10.288
			l-20.986,3.555l-2.666-6.46c2.142-3.145,3.47-5.132,3.981-5.964c0.514-0.832,1.566-2.729,3.162-5.691l-6.904,0.684l-3.11-6.221
			c3.235-5.241,5.389-8.926,6.46-11.057c1.07-2.13,2.791-6.181,5.161-12.151l9.707,4.751L466.878,58.239z M453.445,90.915
			l25.02-5.537l2.324,11.279l-24.951,5.298L453.445,90.915z M480.208,41.286h37.734v19.517c0,1.253-0.137,2.871-0.41,4.854
			s-1.003,3.783-2.188,5.4c-1.186,1.618-3.213,2.427-6.084,2.427h-9.81V61.486h0.718c1.914,0,3.162-0.239,3.742-0.718
			c0.582-0.479,0.872-1.355,0.872-2.632v-5.195h-2.666c-2.188,5.742-3.981,9.963-5.384,12.664c-1.4,2.699-2.911,4.95-4.528,6.75
			l-4.17,4.819l-10.049-7.383c3.304-3.965,5.491-6.762,6.563-8.391c1.07-1.629,1.856-3.104,2.358-4.426l1.606-4.033h-8.306V41.286z
			 M481.233,87.224V75.227l7.041,4.854c1.709-1.526,2.745-2.529,3.11-3.008l1.846-2.324h4.17v1.162h12.817
			c1.595,0,2.54-0.034,2.837-0.103l4.888-0.923v28.472h-36.709v-4.751l2.188-0.82L481.233,87.224z M505.809,93.649v-9.194H493.47
			v9.194H505.809z"/>
	</g>
</g>
</svg>
