<?xml version="1.0" encoding="utf-8"?>
<!-- Generator: Adobe Illustrator 16.0.0, SVG Export Plug-In . SVG Version: 6.00 Build 0)  -->
<!DOCTYPE svg PUBLIC "-//W3C//DTD SVG 1.1//EN" "http://www.w3.org/Graphics/SVG/1.1/DTD/svg11.dtd">
<svg version="1.1" id="图层_1" xmlns="http://www.w3.org/2000/svg" xmlns:xlink="http://www.w3.org/1999/xlink" x="0px" y="0px"
	 width="622px" height="130px" viewBox="0 0 622 130" enable-background="new 0 0 622 130" xml:space="preserve">
<g>
	<g enable-background="new    ">
		<path fill="#FFFFFF" d="M113.221,70.271h-10.254V59.06h10.938l-5.059-5.298l7.827-6.357l4.512,3.931l1.606-1.846l-6.118-5.195
			l-8.408,6.938h-3.452V39.577h20.986l3.11,3.11v11.313l2.769-0.034l-3.35,3.247l1.401,1.846h3.452l4.033,6.118
			c-0.639,1.025-1.105,1.789-1.401,2.29l-4.375,7.656l-1.709,2.632l-9.126-4.136l2.529-5.674h-1.948l-3.213,6.802l8.75,4.067v13.159
			l-3.35,1.812l2.563,4.922c-0.889,0.82-1.841,1.532-2.854,2.137c-1.014,0.603-3.264,0.905-6.75,0.905h-9.81V89.069h5.298
			c0.182,0,0.433-0.131,0.752-0.393c0.319-0.262,0.518-0.553,0.598-0.872c0.08-0.318,0.12-1.504,0.12-3.555L113.221,70.271z
			 M145.179,90.095V63.571h9.468v21.567l-1.06-0.547l-7.246,11.929c-2.119,1.959-3.828,3.372-5.127,4.238
			c-1.299,0.865-4.17,2.267-8.613,4.204l-6.357-10.049c2.643-1.094,4.204-1.789,4.683-2.085l4.683-2.734H145.179z M160.765,87.702
			l-3.691-2.085v-24.37h-14.321v26.66h-10.493V77.893l7.383-12.92l-5.879-8.101v-2.769h7.725l0.581-2.632h-10.391V39.577h36.23
			v11.895h-11.074l-0.581,2.632h9.946v33.599H160.765z M154.646,87.121l13.945,7.69l-5.981,10.151l-13.843-8.442L154.646,87.121z"/>
		<path fill="#FFFFFF" d="M196.961,89.787V73.962l13.638,0.103v6.46h-6.699v15.21c-1.596,0.911-3.561,1.931-5.896,3.06
			c-2.336,1.127-9.679,2.91-22.028,5.349l-2.529-12.988l6.221-1.367H196.961z M176.077,41.765h12.134v18.696h-12.134V41.765z
			 M228.338,68.083V87.36h-5.879v-6.836h-8.75v-9.229h-19.961v15.825h-13.74V62.99h4.272v3.589h19.38v-3.247l7.725,3.691
			l3.794-5.879h1.641l9.229,9.023L228.338,68.083z M190.638,39.68h-3.384v-0.786h13.74v10.835c-1.801,4.238-2.985,6.859-3.555,7.861
			l-1.162,2.051l4.717,2.563v2.188h-13.74V62.99h3.384V39.68z M199.388,58.513c1.641-3.03,3.173-6.181,4.598-9.451
			c1.423-3.27,2.317-5.588,2.683-6.956l1.025-3.691l12.236,3.35l-0.923,2.188h16.953v11.895h-1.265
			c-3.669-3.486-7.44-7.063-11.313-10.732L211.966,56.77l1.606,1.743l-3.11,5.537L199.388,58.513z M206.736,96.896l0.034-13.945
			h12.817v7.725c0,0.752,0.153,1.311,0.462,1.675c0.307,0.364,1.064,0.581,2.272,0.649c1.002,0.068,1.761-0.12,2.272-0.563
			c0.514-0.445,0.804-0.872,0.872-1.282l0.41-1.982l11.895,2.085c-0.479,2.051-1.015,4.056-1.606,6.016
			c-0.593,1.959-1.339,3.446-2.238,4.461c-0.901,1.013-1.921,1.623-3.06,1.828c-1.14,0.205-2.563,0.308-4.272,0.308l-11.416,0.068
			c-3.715,0.022-5.947-0.319-6.699-1.025c-0.752-0.707-1.236-1.401-1.453-2.085S206.713,98.833,206.736,96.896z M215.555,56.428
			l7.725-7.964c3.851,3.213,6.539,5.64,8.066,7.28l3.008,3.213l-8.306,7.964C222.88,63.617,219.383,60.119,215.555,56.428z"/>
		<path fill="#FFFFFF" d="M262.825,58.376v7.622l-3.931,8.203l3.931,2.051v3.691H251.17V67.16l-8.169-5.435
			c3.258-4.261,6.089-8.208,8.494-11.843c2.403-3.634,4.87-7.65,7.399-12.048l8.169,4.272c-2.621,4.922-4.307,7.998-5.059,9.229
			l-3.247,5.332L262.825,58.376z M262.483,84.694c-1.276,4.125-2.438,7.634-3.486,10.527c-1.049,2.894-1.846,4.796-2.393,5.708
			l-1.606,2.769l-11.792-4.751c1.937-3.464,3.389-6.415,4.357-8.853s2.022-5.469,3.162-9.092L262.483,84.694z M281.077,58.854
			l-3.862,9.331h-5.298l0.034,8.989L261.8,73.142c1.8-3.235,3.907-7.462,6.323-12.681l5.4,2.085l3.35-5.195L281.077,58.854z
			 M282.171,40.842l-1.265,2.188h22.319l4.956,5.093l-6.597,13.125l-11.519-4.375l1.743-4.375h-2.324l-2.871,7.28l5.742,12.202
			v3.008c0,0.798-0.04,1.476-0.119,2.033c-0.081,0.56-0.582,1.282-1.504,2.171c-0.924,0.889-2.479,1.333-4.666,1.333h-11.826V70.271
			h4.272c0.684,0,1.219-0.193,1.606-0.581c0.387-0.387,0.934-1.777,1.641-4.17l1.367-4.717l0.82-3.589l-3.589-0.684v-2.051h-4.512
			l-3.247,5.4l-10.698-4.136c2.939-4.944,4.546-7.679,4.819-8.203l4.751-9.229L282.171,40.842z M288.323,90.231l3.999,7.109
			c0.569,1.048,0.825,1.834,0.769,2.358c-0.057,0.523-0.438,1.219-1.145,2.085c-0.707,0.865-2.519,1.299-5.435,1.299h-17.979
			c-1.367,0-2.695-0.319-3.981-0.957c-1.288-0.639-1.932-1.777-1.932-3.418v-4.375l2.769-10.322l-2.769-0.684v-1.299h7.93
			l-4.956,4.956c4.307,3.601,6.881,5.867,7.725,6.802l5.776,6.323L288.323,90.231z M268.704,86.643l4.717-3.794h6.494
			c2.688,2.279,4.842,4.318,6.46,6.118l-7.144,7.588c-1.117-1.23-2.233-2.409-3.35-3.538
			C274.765,91.89,272.372,89.765,268.704,86.643z M288.802,85.856l10.459-5.537c2.393,3.737,4.158,6.586,5.298,8.545
			c1.139,1.96,2.449,4.557,3.931,7.793l-10.698,5.537C294.441,96.019,291.444,90.573,288.802,85.856z M289.622,61.726l3.76-1.367
			l9.16,3.896l1.265-2.29c2.301,3.965,3.805,6.768,4.512,8.408l0.957,2.188l-10.664,5.571
			C295.238,71.957,292.242,66.488,289.622,61.726z"/>
		<path fill="#FFFFFF" d="M344.822,100.588l-30.796-0.137V50.207h7.041l1.709-10.869l14.219,0.718l-1.401,10.151h8.647
			c-1.801,4.671-2.997,7.588-3.589,8.75l-2.529,5.059l6.699,3.008v7.861V100.588z M325.203,61.247v8.066h8.545v-8.066H325.203z
			 M325.203,79.841v8.647h8.545v-8.647H325.203z M365.467,71.296v-9.331h-8.989l-2.324,5.742l-12.886-4.819
			c1.116-2.506,2.29-5.212,3.521-8.118s2.438-6.283,3.623-10.134l1.812-5.776l12.954,3.589l-2.085,6.938h17.432v42.212
			c0,1.891-0.183,3.486-0.547,4.785c-0.365,1.299-0.923,2.461-1.675,3.486s-1.96,1.8-3.623,2.324
			c-1.664,0.523-3.179,0.786-4.546,0.786l-17.671,0.034V90.231h11.758c1.549,0,2.479-0.216,2.785-0.649
			c0.309-0.433,0.462-1.104,0.462-2.017v-2.188l5.776-4.375L365.467,71.296z M348.411,73.347l9.775-7.041
			c1.937,2.233,3.515,4.221,4.734,5.965c1.218,1.742,2.956,4.552,5.212,8.425l-9.57,6.597c-1.846-2.962-3.789-5.799-5.827-8.511
			C350.695,76.07,349.254,74.259,348.411,73.347z"/>
		<path fill="#FFFFFF" d="M403.03,41.218l-0.82,1.23h13.057c-0.889,2.985-1.459,4.751-1.709,5.298l-2.324,5.298h-1.846l0.581,5.605
			l-10.732,0.342l-0.342-3.726l1.025-2.222h-1.743c-0.935,1.777-2.04,3.68-3.315,5.708l-10.732-4.375
			c1.663-2.711,3.093-5.212,4.29-7.502c1.195-2.29,1.953-3.833,2.272-4.631l1.743-4.17L403.03,41.218z M398.895,102.878H387V66.921
			h11.895V102.878z M406.619,60.7l2.29,1.606v3.589l-1.367,0.923h-6.221v-2.188h-6.699l-1.743-1.401l4.272-4.854l0.239,2.666
			L406.619,60.7z M401.766,69.45h28.848v20.337h-7.52v6.973h-21.328V69.45z M411.233,76.047v3.452h10.151v-3.452H411.233z
			 M421.282,89.069v-3.452h-10.049v3.452H421.282z M427.024,58.615l1.401,4.136l15.347-2.529l-0.581-1.606h2.529l0.034,36.982
			c0,1.641-0.098,2.968-0.291,3.981s-0.587,1.926-1.179,2.734c-0.593,0.809-1.384,1.299-2.376,1.471
			c-0.99,0.17-2.523,0.256-4.597,0.256h-11.211V92.18h5.776c0.433,0,0.809-0.21,1.128-0.632c0.318-0.422,0.479-1.441,0.479-3.06
			V67.023h-22.148v-8.408H427.024z M439.534,52.839c0.387,1.345,0.604,2.119,0.649,2.324l0.718,3.384l-10.767,1.675
			c-0.479-2.119-0.775-3.395-0.889-3.828l-1.06-3.589h-2.529l-1.846,3.931l-10.391-2.358c0.82-1.846,1.641-3.731,2.461-5.657
			c0.82-1.925,2.073-5.36,3.76-10.305l10.493,1.914l-0.615,2.017h18.184v10.459L439.534,52.839z"/>
		<path fill="#FFFFFF" d="M482.942,53.42h-9.741l-0.205,5.298h-4.922v17.329h3.657c-0.183,2.324-0.285,3.669-0.308,4.033
			l-0.615,5.537c-1.572,1.914-2.484,2.985-2.734,3.213l-4.888,4.819l5.024,5.64c-0.319,1.436-0.547,2.29-0.684,2.563l-1.025,2.188
			l-13.467-4.956c0.82-2.188,1.84-5.082,3.06-8.682c1.218-3.6,2.112-8.465,2.683-14.595c0.569-6.13,0.854-13.797,0.854-23.003
			V40.603h58.242V53.42h-16.543l0.308-3.589l-18.252-0.444L482.942,53.42z M484.993,51.916l13.843,0.342l-0.684,8.784h19.824
			c-0.251,4.421-0.399,7.725-0.444,9.912l-0.239,9.468c-0.023,0.547-0.132,2.911-0.325,7.093s-0.729,7.251-1.605,9.211
			c-0.878,1.959-2.029,3.264-3.453,3.914c-1.424,0.648-3.708,0.974-6.853,0.974h-7.485V88.386h4.478
			c1.002,0,1.651-0.165,1.948-0.496c0.296-0.329,0.455-1.019,0.479-2.067l0.239-11.758h-7.622c-0.639,2.188-1.362,4.427-2.17,6.716
			c-0.81,2.291-2.461,5.299-4.957,9.023c-2.494,3.727-5.27,6.854-8.322,9.383l-5.537,4.751l-10.151-10.288
			c8.385-7.747,13.455-13.66,15.21-17.739l0.82-1.846h-11.895V61.042h13.979L484.993,51.916z"/>
	</g>
</g>
</svg>
